<?xml version="1.0" encoding="UTF-8"?>
<svg xmlns="http://www.w3.org/2000/svg" xmlns:xlink="http://www.w3.org/1999/xlink" version="1.1" id="Capa_1" x="0px" y="0px" viewBox="0 0 512 512" style="enable-background:new 0 0 512 512;" xml:space="preserve" width="512" height="512">
<g>
	<path d="M491.98,375H296c-22.091,0-40,17.909-40,40h235.98V375z"/>
	<path d="M20.02,375H216c22.091,0,40,17.909,40,40H20.02V375z"/>
	<path style="fill:none;stroke:#000000;stroke-width:20;stroke-linecap:round;stroke-linejoin:round;stroke-miterlimit:10;" d="&#10;&#9;&#9;M236,455c0,11.046,8.954,20,20,20c11.046,0,20-8.954,20-20h226v-40H10v40H236z"/>
	<path style="fill:none;stroke:#000000;stroke-width:20;stroke-linecap:round;stroke-linejoin:round;stroke-miterlimit:10;" d="&#10;&#9;&#9;M491.98,335H296c-22.091,0-40,17.909-40,40v40h235.98V335z"/>
	<path style="fill:none;stroke:#000000;stroke-width:20;stroke-linecap:round;stroke-linejoin:round;stroke-miterlimit:10;" d="&#10;&#9;&#9;M20.02,335H216c22.091,0,40,17.909,40,40v40H20.02V335z"/>
	<g>
		<g>
			
				<line style="fill:none;stroke:#000000;stroke-width:20;stroke-linecap:round;stroke-linejoin:round;stroke-miterlimit:10;" x1="283.913" y1="192.885" x2="283.913" y2="272.885"/>
		</g>
		<g>
			
				<line style="fill:none;stroke:#000000;stroke-width:20;stroke-linecap:round;stroke-linejoin:round;stroke-miterlimit:10;" x1="188.552" y1="192.885" x2="188.552" y2="272.885"/>
			
				<line style="fill:none;stroke:#000000;stroke-width:20;stroke-linecap:round;stroke-linejoin:round;stroke-miterlimit:10;" x1="243.913" y1="192.885" x2="243.913" y2="272.885"/>
			
				<line style="fill:none;stroke:#000000;stroke-width:20;stroke-linecap:round;stroke-linejoin:round;stroke-miterlimit:10;" x1="188.552" y1="231.513" x2="243.913" y2="231.513"/>
		</g>
		<g>
			
				<polyline style="fill:none;stroke:#000000;stroke-width:20;stroke-linecap:round;stroke-linejoin:round;stroke-miterlimit:10;" points="&#10;&#9;&#9;&#9;&#9;64.646,192.885 30.937,192.885 30.937,272.885 64.646,272.885 &#9;&#9;&#9;"/>
			
				<line style="fill:none;stroke:#000000;stroke-width:20;stroke-linecap:round;stroke-linejoin:round;stroke-miterlimit:10;" x1="62.16" y1="232.885" x2="30.937" y2="232.885"/>
		</g>
		<g>
			<path style="fill:none;stroke:#000000;stroke-width:20;stroke-linecap:round;stroke-linejoin:round;stroke-miterlimit:10;" d="&#10;&#9;&#9;&#9;&#9;M386.277,199.717c-6.384-4.313-14.08-6.831-22.364-6.831c-22.091,0-40,17.909-40,40s17.909,40,40,40&#10;&#9;&#9;&#9;&#9;c8.972,0,16.352-2.954,21.953-7.942c1.159-1.032,2.242-2.151,3.247-3.35"/>
		</g>
		<g>
			<path style="fill:none;stroke:#000000;stroke-width:20;stroke-linecap:round;stroke-linejoin:round;stroke-miterlimit:10;" d="&#10;&#9;&#9;&#9;&#9;M478.419,201.109c0,0-14.355-12.067-31.283-6.967c-15.543,4.682-17.718,22.605-6.472,29.937c0,0,11.035,4.923,23.273,9.437&#10;&#9;&#9;&#9;&#9;c29.461,10.867,16.771,39.369-6.947,39.369c-11.877,0-21.845-5.201-27.878-11.859"/>
		</g>
		<g>
			
				<line style="fill:none;stroke:#000000;stroke-width:20;stroke-linecap:round;stroke-linejoin:round;stroke-miterlimit:10;" x1="102.16" y1="192.885" x2="146.341" y2="192.885"/>
			
				<line style="fill:none;stroke:#000000;stroke-width:20;stroke-linecap:round;stroke-linejoin:round;stroke-miterlimit:10;" x1="124.161" y1="195.44" x2="124.161" y2="272.885"/>
		</g>
	</g>
	<path style="fill:none;stroke:#000000;stroke-width:20;stroke-linecap:round;stroke-linejoin:round;stroke-miterlimit:10;" d="&#10;&#9;&#9;M491.98,335H296c-22.091,0-40,17.909-40,40v40h235.98V335z"/>
	<path style="fill:none;stroke:#000000;stroke-width:20;stroke-linecap:round;stroke-linejoin:round;stroke-miterlimit:10;" d="&#10;&#9;&#9;M20.02,335H216c22.091,0,40,17.909,40,40v40H20.02V335z"/>
	
		<line style="fill:none;stroke:#000000;stroke-width:20;stroke-linecap:round;stroke-linejoin:round;stroke-miterlimit:10;" x1="256" y1="37" x2="256" y2="105.951"/>
	
		<line style="fill:none;stroke:#000000;stroke-width:20;stroke-linecap:round;stroke-linejoin:round;stroke-miterlimit:10;" x1="128" y1="86.391" x2="158.358" y2="116.748"/>
	
		<line style="fill:none;stroke:#000000;stroke-width:20;stroke-linecap:round;stroke-linejoin:round;stroke-miterlimit:10;" x1="384" y1="86.391" x2="353.642" y2="116.748"/>
</g>















</svg>
