<?xml version="1.0" encoding="UTF-8"?>
<svg id="Capa_1" data-name="Capa 1" xmlns="http://www.w3.org/2000/svg" viewBox="0 0 377.64 377.64">
  <defs>
    <style>
      .cls-1 {
        fill: #fff;
      }
    </style>
  </defs>
  <rect class="cls-1" x="-28.89" y="-84.23" width="472.85" height="397.28"/>
  <rect class="cls-1" x="46.99" y="99.1" width="232.17" height="43.57"/>
  <g>
    <path d="M364.24,342.02H13.4c-4.29,0-7.76-3.48-7.76-7.76s3.48-7.76,7.76-7.76h350.84c4.29,0,7.76,3.48,7.76,7.76s-3.48,7.76-7.76,7.76ZM350.01,111.86h-201.02c-3.79,0-6.94,2.71-7.62,6.3-.09.47-.14.96-.14,1.46,0,4.29,3.47,7.77,7.76,7.77h193.25v171.5c0,4.29,3.48,7.76,7.76,7.76s7.77-3.47,7.77-7.76V119.62c0-4.28-3.48-7.76-7.76-7.76ZM129.19,144.88c-1.1-25.94-22.55-46.69-48.75-46.69s-47.64,20.75-48.75,46.69c-15.78,8.39-26.05,25.1-26.05,43.13s10.27,34.75,26.05,43.14c.38,8.75,3.1,17.19,7.93,24.55,1.49,2.28,3.97,3.51,6.49,3.51,1.47,0,2.94-.41,4.26-1.27,3.58-2.35,4.58-7.17,2.23-10.75-3.55-5.41-5.43-11.69-5.43-18.14,0-.74.03-1.49.08-2.3.24-3.37-1.75-6.51-4.9-7.75-8.14-3.2-14.55-9.47-18.11-17.14-.65-1.41-1.21-2.86-1.66-4.36-.93-3.04-1.42-6.23-1.42-9.49,0-13.54,8.51-25.99,21.19-30.98,3.15-1.24,5.14-4.38,4.9-7.76-.05-.78-.08-1.55-.08-2.29,0-18.35,14.93-33.27,33.27-33.27s33.27,14.92,33.27,33.27c0,.74-.02,1.49-.08,2.29-.23,3.38,1.75,6.52,4.9,7.76,12.68,4.99,21.2,17.44,21.2,30.98s-8.52,26-21.2,30.99c-3.15,1.24-5.13,4.38-4.9,7.75.06.81.08,1.56.08,2.3,0,6.42-1.86,12.67-5.38,18.07-1.19,1.83-1.52,3.98-1.06,5.96.42,1.9,1.56,3.63,3.32,4.78,3.59,2.35,8.4,1.33,10.74-2.26,4.79-7.33,7.49-15.75,7.86-24.45,15.78-8.39,26.06-25.1,26.06-43.14s-10.28-34.74-26.06-43.13ZM80.44,163.98c-4.28,0-7.76,3.47-7.76,7.76v127.15c0,4.29,3.48,7.76,7.76,7.76s7.76-3.47,7.76-7.76v-127.15c0-4.29-3.47-7.76-7.76-7.76Z"/>
    <path d="M118.53,157.03c-3.15-1.24-5.13-4.38-4.9-7.76.06-.8.08-1.55.08-2.29,0-18.35-14.92-33.27-33.27-33.27s-33.27,14.92-33.27,33.27c0,.74.03,1.51.08,2.29.24,3.38-1.75,6.52-4.9,7.76-12.68,4.99-21.19,17.44-21.19,30.98,0,3.26.49,6.45,1.42,9.49l1.66,4.36c3.56,7.67,9.97,13.94,18.11,17.14,3.15,1.24,5.14,4.38,4.9,7.75-.05.81-.08,1.56-.08,2.3,0,6.45,1.88,12.73,5.43,18.14,2.35,3.58,1.35,8.4-2.23,10.75-1.32.86-2.79,1.27-4.26,1.27l17.56,4.07v67.74l24.53,1.7c.22-23.03.44-46.07.66-69.1,1.42-.92,2.84-1.83,4.26-2.75.89.3,3.37,1.01,6.13,0,3.19-1.17,5.48-4.2,6.04-7.85.66.02,1.32.04,1.98.06-.46-1.98-.13-4.13,1.06-5.96,3.52-5.4,5.38-11.65,5.38-18.07,0-.74-.02-1.49-.08-2.3-.23-3.37,1.75-6.51,4.9-7.75,12.68-4.99,21.2-17.44,21.2-30.99s-8.52-25.99-21.2-30.98ZM88.2,298.89c0,4.29-3.47,7.76-7.76,7.76s-7.76-3.47-7.76-7.76v-127.15c0-4.29,3.48-7.76,7.76-7.76s7.76,3.47,7.76,7.76v127.15Z"/>
    <path d="M52.6,247.19c2.35,3.58,1.35,8.4-2.23,10.75-1.32.86-2.79,1.27-4.26,1.27l-21.87-57.35c3.56,7.67,9.97,13.94,18.11,17.14,3.15,1.24,5.14,4.38,4.9,7.75-.05.81-.08,1.56-.08,2.3,0,6.45,1.88,12.73,5.43,18.14Z"/>
    <path d="M88.2,171.74v127.15c0,4.29-3.47,7.76-7.76,7.76s-7.76-3.47-7.76-7.76v-127.15c0-4.29,3.48-7.76,7.76-7.76s7.76,3.47,7.76,7.76Z"/>
    <path d="M147.08,202l-20.77,28.54-8.51,22.87c-3.51-.11-7.02-.22-10.53-.33-.46-1.98-.13-4.13,1.06-5.96,3.52-5.4,5.38-11.65,5.38-18.07,0-.74-.02-1.49-.08-2.3-.23-3.37,1.75-6.51,4.9-7.75,12.68-4.99,21.2-17.44,21.2-30.99s-8.52-25.99-21.2-30.98c-3.15-1.24-5.13-4.38-4.9-7.76.06-.8.08-1.55.08-2.29,0-18.35-14.92-33.27-33.27-33.27s-33.27,14.92-33.27,33.27c0,.74.03,1.51.08,2.29.24,3.38-1.75,6.52-4.9,7.76-12.68,4.99-21.19,17.44-21.19,30.98,0,3.26.49,6.45,1.42,9.49l-5.55-14.56,12.26-31.66,19.06-25.19,24.33-15.66,32.52,4.76s17.02,27.24,17.02,29.28,19.01,25.53,19.01,25.53l5.85,32Z"/>
    <path d="M219.93,115.28c-25.7-.68-50.49-.63-74.3,0-1.23.42-2.99,1.23-4.26,2.88,0,0-.07.09-.14.18-3.82,5.07,8.91,25.79,8.91,25.79,4.83,7.86,6.48,9.17,9.7,15.83.77,1.57,2.73,5.66,4.26,10.38,1.38,4.28,4.94,15.74,2.38,30.3-.67,3.83-3.76,21.39-13.28,28.26-1.03.74-4.81,3.29-9.1,7.65-1.15,1.17-3.08,3.15-4.85,5.62-3.85,5.36-3.99,8.9-5.96,13.5-4.66,10.82-14.67,12.64-15.83,13.23-2.75,1.4-9.18-1.25-17.02-1.53l1.02,63.92h256.31V125.75c-42.49-5.34-88.57-9.17-137.84-10.47ZM198.1,283.44c0,4.29-3.48,7.76-7.77,7.76h-31.61c-4.28,0-7.76-3.47-7.76-7.76v-45.14c0-4.29,3.48-7.76,7.76-7.76h31.61c4.29,0,7.77,3.47,7.77,7.76v45.14ZM198.1,202.27c0,4.28-3.48,7.76-7.77,7.76h-14.7c-4.28,0-7.76-3.48-7.76-7.76s3.48-7.76,7.76-7.76h6.94v-29.62h-6.94c-4.28,0-7.76-3.48-7.76-7.76s3.48-7.77,7.76-7.77h14.7c4.29,0,7.77,3.48,7.77,7.77v45.14ZM261.44,283.44c0,4.29-3.47,7.76-7.76,7.76h-31.61c-4.29,0-7.76-3.47-7.76-7.76v-45.14c0-4.29,3.47-7.76,7.76-7.76h31.61c4.29,0,7.76,3.47,7.76,7.76v45.14ZM261.44,202.27c0,4.28-3.47,7.76-7.76,7.76h-31.61c-4.29,0-7.76-3.48-7.76-7.76v-45.14c0-4.29,3.47-7.77,7.76-7.77h31.61c4.29,0,7.76,3.48,7.76,7.77v45.14ZM324.79,283.44c0,4.29-3.47,7.76-7.76,7.76h-31.61c-4.29,0-7.76-3.47-7.76-7.76v-45.14c0-4.29,3.47-7.76,7.76-7.76h31.61c4.29,0,7.76,3.47,7.76,7.76v45.14ZM324.79,202.27c0,4.28-3.47,7.76-7.76,7.76h-31.61c-4.29,0-7.76-3.48-7.76-7.76v-45.14c0-4.29,3.47-7.77,7.76-7.77h31.61c4.29,0,7.76,3.48,7.76,7.77v45.14Z"/>
    <rect x="293.18" y="246.06" width="16.09" height="29.62"/>
    <rect x="293.18" y="164.89" width="16.09" height="29.62"/>
    <rect x="229.83" y="164.89" width="16.09" height="29.62"/>
    <rect x="229.84" y="246.06" width="16.09" height="29.62"/>
    <rect x="166.48" y="246.06" width="16.09" height="29.62"/>
    <path d="M313.25,35.62h-98.11c-3.31,0-6,2.69-6,6v59.36h110.11v-59.36c0-3.31-2.69-6-6-6ZM241.43,77.46c0,4.29-3.47,7.76-7.76,7.76s-7.76-3.47-7.76-7.76v-15.09c0-4.29,3.47-7.76,7.76-7.76s7.76,3.47,7.76,7.76v15.09ZM272.06,77.46c0,4.29-3.48,7.76-7.76,7.76s-7.76-3.47-7.76-7.76v-15.09c0-4.29,3.47-7.76,7.76-7.76s7.76,3.47,7.76,7.76v15.09ZM302.69,77.46c0,4.29-3.47,7.76-7.76,7.76s-7.76-3.47-7.76-7.76v-15.09c0-4.29,3.47-7.76,7.76-7.76s7.76,3.47,7.76,7.76v15.09Z"/>
  </g>
</svg>