<svg id="ID_Card" viewBox="0 0 96 96" xmlns="http://www.w3.org/2000/svg" data-name="ID Card"><path d="m55 45.13v-1.13c0-2.21-1.79-4-4-4h-6c-2.21 0-4 1.79-4 4v1.13c3.54 3.77 10.46 3.77 14 0z"/><path d="m48 39c5.29-.17 5.29-7.83 0-8-5.29.17-5.29 7.83 0 8z"/><path d="m48 22c3.31 0 6-2.69 6-6v-11c0-.55-.45-1-1-1h-10c-.55 0-1 .45-1 1v11c0 3.31 2.69 6 6 6zm0-8.5c3.3.08 3.3 4.92 0 5-3.3-.08-3.3-4.92 0-5z"/><path d="m71 11h-15v5c0 4.41-3.59 8-8 8s-8-3.59-8-8v-5h-15c-3.31 0-6 2.69-6 6v70c0 3.31 2.69 6 6 6h46c3.31 0 6-2.69 6-6v-70c0-3.31-2.69-6-6-6zm-23 15c11.94.1 16.41 15.5 6.6 22.01-7.75 5.26-18.67-.5-18.6-10.01 0-6.62 5.38-12 12-12zm5.82 22.49s-.08.05-.12.07c.04-.02.08-.05.12-.07zm-11.52.07s-.08-.05-.12-.07c.04.02.08.05.12.07zm-10.3 9.22c0-2.08 1.69-3.78 3.78-3.78h24.45c2.27-.01 3.98 1.99 3.78 4.22 0 2.08-1.69 3.78-3.78 3.78h-24.45c-2.27.01-3.98-1.99-3.78-4.22zm-4 20.22c0-.55.45-1 1-1h28c.55 0 1 .45 1 1s-.45 1-1 1h-28c-.55 0-1-.45-1-1zm39 8h-13c-.55 0-1-.45-1-1s.45-1 1-1h13c1.31.02 1.32 1.98 0 2zm0-12h-38c-1.3-.02-1.33-1.98 0-2h38c1.3.02 1.33 1.98 0 2zm0-5h-38c-1.3-.02-1.33-1.98 0-2h38c1.3.02 1.33 1.98 0 2z"/></svg>