<svg clip-rule="evenodd" fill-rule="evenodd" height="512" image-rendering="optimizeQuality" shape-rendering="geometricPrecision" text-rendering="geometricPrecision" viewBox="0 0 512 512" width="512" xmlns="http://www.w3.org/2000/svg" xmlns:xodm="http://www.corel.com/coreldraw/odm/2003"><g id="Layer_x0020_1"><path d="m452.64 512h-393.28c-12.96 0-23.5-10.54-23.5-23.5v-465c0-12.95 10.54-23.5 23.5-23.5h289.45v91.02c0 9.94 8.08 18 18 18h109.33v379.48c0 12.96-10.54 23.5-23.5 23.5zm-159.47-409.81h-16.17v32.35h16.17c8.92 0 16.17-7.26 16.17-16.17 0-8.92-7.25-16.18-16.17-16.18zm135.35 86.46h-345.04c-3.31 0-6-2.69-6-6s2.69-6 6-6h345.04c3.31 0 6 2.69 6 6s-2.69 6-6 6zm0 46.25h-345.04c-3.31 0-6-2.69-6-6s2.69-6 6-6h345.04c3.31 0 6 2.69 6 6s-2.69 6-6 6zm0 46.25h-345.04c-3.31 0-6-2.69-6-6s2.69-6 6-6h345.04c3.31 0 6 2.69 6 6s-2.69 6-6 6zm0 46.25h-345.04c-3.31 0-6-2.69-6-6s2.69-6 6-6h345.04c3.31 0 6 2.69 6 6s-2.69 6-6 6zm0 46.25h-345.04c-3.31 0-6-2.69-6-6s2.69-6 6-6h345.04c3.31 0 6 2.69 6 6s-2.69 6-6 6zm0 46.25h-345.04c-3.31 0-6-2.68-6-6 0-3.31 2.69-6 6-6h345.04c3.31 0 6 2.69 6 6 0 3.32-2.69 6-6 6zm0 46.25h-345.04c-3.31 0-6-2.69-6-6s2.69-6 6-6h345.04c3.31 0 6 2.69 6 6s-2.69 6-6 6zm-203.24-319.72h-30.72c-10.59 0-19.21-8.62-19.21-19.21v-62.05c0-10.6 8.62-19.22 19.21-19.22h30.72c10.6 0 19.22 8.62 19.22 19.22v62.05c0 10.6-8.62 19.21-19.22 19.21zm-30.72-88.48c-3.97 0-7.21 3.24-7.21 7.22v62.05c0 3.98 3.24 7.21 7.21 7.21h30.72c3.98 0 7.22-3.23 7.22-7.21v-62.05c0-3.98-3.24-7.22-7.22-7.22zm-73.58 88.48c-18.56 0-33.65-15.09-33.65-33.64 0-3.32 2.69-6 6-6s6 2.68 6 6c0 11.93 9.71 21.64 21.65 21.64s21.65-9.71 21.65-21.64v-60.84c0-3.31 2.69-6 6-6s6 2.69 6 6v60.84c0 18.55-15.1 33.64-33.65 33.64zm144.02-50.24v-44.34c0-1.59.63-3.12 1.75-4.24 1.13-1.13 2.66-1.76 4.25-1.76h22.17c15.53 0 28.17 12.64 28.17 28.17 0 8.99-4.23 17.01-10.81 22.17 6.58 5.16 10.81 13.18 10.81 22.17 0 15.54-12.64 28.18-28.17 28.18h-22.17c-3.32 0-6-2.69-6-6zm12-6h16.17c8.92 0 16.17-7.25 16.17-16.17s-7.25-16.17-16.17-16.17h-16.17z"/><path d="m470.14 97.02h-103.33c-3.31 0-6-2.69-6-6v-85.02c0-2.32 1.34-4.43 3.44-5.42s4.58-.68 6.38.79l103.32 85.02c1.96 1.61 2.69 4.27 1.84 6.66-.86 2.38-3.12 3.97-5.65 3.97z"/></g></svg>