<svg id="Layer_1" enable-background="new 0 0 512 512" viewBox="0 0 512 512" xmlns="http://www.w3.org/2000/svg"><path clip-rule="evenodd" d="m208.678 58.418c0-16.198 13.251-29.449 29.451-29.449h233.423c16.198 0 29.449 13.257 29.449 29.449v176.847c0 16.192-13.257 29.449-29.449 29.449h-108.713v35.159c6.04 2.961 10.199 9.169 10.199 16.349 0 10.051-8.147 18.198-18.199 18.198-10.051 0-18.198-8.147-18.198-18.198 0-7.18 4.159-13.388 10.199-16.349v-35.159h-108.711c-16.188 0-29.451-13.251-29.451-29.449v-39.624h38.44c7.707 0 15.104-2.806 20.863-7.895l42.439-33.163c11.105-8.678 14.797-23.354 10.074-35.89l48.945-38.112c3.469-2.709 4.084-7.718 1.375-11.188-2.709-3.469-7.719-4.084-11.188-1.375l-48.365 37.66c-11.134-9.343-27.671-9.981-39.578-.677l-35.325 27.605h-27.68zm-85.398 284.803v139.81h44.971l.447-276.477 22.252-26.913h56.169c4.081 0 7.794-1.576 10.564-4.153l42.886-33.513c6.729-5.256 7.923-14.971 2.667-21.7-5.255-6.729-14.971-7.923-21.7-2.667l-39.667 30.998h-182.239c-21.405 0-48.028 13.733-48.149 37.967l-.481 95.822c-.096 18.942 16.001 34.863 35.308 37.65v-126.137c0-4.418 3.582-8 8-8s8 3.582 8 8v289.123h44.971v-139.81c0-4.418 3.582-8 8-8 4.419 0 8.001 3.582 8.001 8zm152.2-23.438c-21.113 0-38.228 17.116-38.228 38.228 0 21.113 17.115 38.228 38.228 38.228s38.228-17.116 38.228-38.228-17.115-38.228-38.228-38.228zm65.669 153.93-131.337-.001c-5.216 0-9.012-4.836-7.771-9.903 8.089-33.047 37.9-57.57 73.44-57.57 35.541 0 65.352 24.523 73.441 57.571 1.239 5.067-2.557 9.903-7.773 9.903zm84.679-153.93c-21.112 0-38.228 17.116-38.228 38.228 0 21.113 17.116 38.228 38.228 38.228 21.113 0 38.228-17.116 38.228-38.228s-17.116-38.228-38.228-38.228zm-65.67 153.93 131.337-.001c5.216 0 9.012-4.836 7.771-9.903-8.089-33.047-37.9-57.57-73.44-57.57s-65.351 24.523-73.44 57.57c-1.239 5.067 2.557 9.904 7.772 9.904zm-244.76-429.873c23.039 0 41.716 13.13 41.716 43.41s-18.677 54.827-41.716 54.827c-23.04 0-41.717-24.548-41.717-54.827 0-30.28 18.677-43.41 41.717-43.41zm128.953 35.299h81.962c4.418 0 8-3.582 8-8s-3.582-8-8-8h-81.962c-4.418 0-8 3.582-8 8s3.582 8 8 8zm155.18 0h65.796c4.418 0 8-3.582 8-8s-3.582-8-8-8h-65.796c-4.418 0-8 3.582-8 8s3.582 8 8 8zm-155.18 151.403h220.976c4.418 0 8-3.582 8-8s-3.582-8-8-8h-220.976c-4.418 0-8 3.582-8 8 0 4.419 3.582 8 8 8zm92.055-75.701h128.921c4.418 0 8-3.582 8-8s-3.582-8-8-8h-128.921c-4.418 0-8 3.582-8 8s3.582 8 8 8zm-44.239 37.851h173.159c4.418 0 8-3.582 8-8s-3.582-8-8-8h-173.159c-4.418 0-8 3.582-8 8 .001 4.418 3.582 8 8 8zm66.033-75.702h107.127c4.418 0 8-3.582 8-8s-3.582-8-8-8h-107.127c-4.418 0-8 3.582-8 8s3.582 8 8 8z" fill-rule="evenodd"/></svg>