<?xml version="1.0" encoding="UTF-8"?>
<svg id="Layer_1" data-name="Layer 1" xmlns="http://www.w3.org/2000/svg" xmlns:xlink="http://www.w3.org/1999/xlink" viewBox="0 0 140 140">
  <defs>
    <style>
      .cls-1 {
        fill: none;
      }

      .cls-2 {
        fill: url(#linear-gradient);
      }

      .cls-3 {
        clip-path: url(#clippath);
      }
    </style>
    <clipPath id="clippath">
      <path class="cls-1" d="M119.12,63.75v22c0,1.51,1.21,2.75,2.72,2.78,1.51,0,2.74-1.22,2.74-2.73,0-.02,0-.03,0-.05v-22c.01-1.52-1.21-2.77-2.73-2.78-1.5,0-2.72,1.22-2.73,2.72,0,.02,0,.04,0,.06M20.46,79.63c0-2.47,2.26-3.87,5.39-3.87,2.1.01,4.2.3,6.22.87v5.74c-.52.41-2.42,1.59-5.97,1.59s-5.65-1.55-5.65-4.31M18.81,62.07c-1.07.38-1.8,1.39-1.81,2.53,0,1.59,1.49,2.78,3.76,2.06,1.79-.69,3.69-1.07,5.6-1.13,4.01,0,5.71,1.49,5.71,4.98v1.69c-2.13-.57-4.33-.86-6.53-.87-6.95,0-10.21,3.79-10.42,8.08v.9c.22,4.79,3.71,8.41,10.52,8.41,5.35,0,9.26-1.91,10.7-2.88.69-.42,1.06-1.2.97-2v-13.37c0-6.94-4.06-9.97-10.64-9.97-2.7,0-5.37.53-7.86,1.55M72,79.63c0-2.47,2.26-3.87,5.4-3.87,2.1.01,4.2.3,6.22.87v5.74c-.52.41-2.41,1.59-5.97,1.59s-5.68-1.55-5.68-4.31M70.34,62.07c-1.07.38-1.8,1.39-1.81,2.53,0,1.59,1.5,2.78,3.76,2.06,1.79-.69,3.69-1.07,5.6-1.13,4,0,5.71,1.49,5.71,4.98v1.69c-2.13-.57-4.33-.86-6.53-.87-7.19,0-10.43,4.06-10.43,8.53,0,5.04,3.49,8.9,10.54,8.9,5.35,0,9.26-1.91,10.7-2.88.69-.42,1.06-1.2.97-2v-13.37c0-6.94-4.06-9.97-10.64-9.97-2.7,0-5.37.53-7.86,1.55M93.56,63.37c-.75.43-1.17,1.25-1.08,2.11v20.2c0,1.51,1.22,2.75,2.73,2.78,1.51,0,2.73-1.23,2.73-2.73,0-.02,0-.03,0-.05v-18.49c1.17-.72,3.61-1.44,6.11-1.44,3.19,0,5.98,1.75,5.98,5.87v14.03c0,1.51,1.21,2.75,2.72,2.78,1.49.02,2.71-1.17,2.73-2.66,0-.04,0-.08,0-.13v-14.29c0-6.94-3.81-10.84-11.26-10.84-5.4,0-9.15,1.7-10.64,2.82M45.97,77.47c-.12-2-.12-4.01,0-6.02.21-3.75,2.06-5.71,5.97-5.71,2.21,0,4.38.56,6.32,1.6v14.28c-1.77,1.13-3.81,1.77-5.91,1.85-3.96,0-6.07-2.06-6.38-6.01M58.26,54.29v7.71c-2.11-.94-4.4-1.44-6.71-1.49-6.63,0-10.43,3.95-11,10.32-.15,2.43-.15,4.87,0,7.31.57,6.32,4.78,10.59,11.72,10.59,3.73-.04,7.37-1.15,10.49-3.2.83-.56.98-1.13.98-2.06v-29.18c.03-1.51-1.17-2.75-2.68-2.78-.02,0-.03,0-.05,0-1.52.02-2.74,1.26-2.72,2.78M118.76,54.29c0,1.69,1.37,3.06,3.06,3.06,1.69,0,3.06-1.37,3.06-3.06h0c0-1.7-1.37-3.07-3.06-3.06-1.69,0-3.05,1.37-3.06,3.06Z"/>
    </clipPath>
    <linearGradient id="linear-gradient" x1="-195.13" y1="-536.88" x2="-194.07" y2="-536.88" gradientTransform="translate(37845.96 -104160.46) scale(194.14 -194.14)" gradientUnits="userSpaceOnUse">
      <stop offset="0" stop-color="#00b16b"/>
      <stop offset=".07" stop-color="#00a17c"/>
      <stop offset=".25" stop-color="#007ca6"/>
      <stop offset=".35" stop-color="#006db6"/>
      <stop offset=".4" stop-color="#205dad"/>
      <stop offset=".48" stop-color="#4f46a0"/>
      <stop offset=".55" stop-color="#713597"/>
      <stop offset=".61" stop-color="#862b91"/>
      <stop offset=".65" stop-color="#8e278f"/>
      <stop offset=".73" stop-color="#a83172"/>
      <stop offset=".89" stop-color="#eb4a29"/>
      <stop offset=".9" stop-color="#f04c23"/>
      <stop offset="1" stop-color="#f04c23"/>
    </linearGradient>
  </defs>
  <g class="cls-3">
    <rect class="cls-2" x="13.69" y="46.55" width="112.62" height="46.9" transform="translate(-5.83 6.37) rotate(-5)"/>
  </g>
</svg>