<?xml version="1.0" encoding="UTF-8"?>
<svg id="Layer_1" data-name="Layer 1" xmlns="http://www.w3.org/2000/svg" viewBox="0 0 140 140">
  <defs>
    <style>
      .cls-1 {
        fill: #fbd440;
      }

      .cls-2 {
        fill: #fff;
      }

      .cls-3 {
        fill: #af2026;
      }

      .cls-4 {
        fill: #d91f27;
      }

      .cls-5 {
        fill: #cb2035;
      }

      .cls-6 {
        fill: #f15c2e;
      }
    </style>
  </defs>
  <path class="cls-5" d="M61.35,55.62l-2.1,9.95h1.81l.48-2.55h2.48l.48,2.55h1.82l-2.13-9.95h-2.83ZM61.81,61.55l.87-4.67h.17l.88,4.67h-1.93,0Z"/>
  <path class="cls-5" d="M61.35,55.62l-2.1,9.95h1.81l.48-2.55h2.48l.48,2.55h1.82l-2.13-9.95h-2.83ZM61.81,61.55l.87-4.67h.17l.88,4.67h-1.93,0Z"/>
  <path class="cls-5" d="M70.28,55.62h-3v9.95h3c.46.04.91-.02,1.35-.17.43-.15.83-.38,1.17-.69.58-.68.88-1.57.82-2.46v-3.32c.03-.45-.03-.89-.17-1.32-.14-.42-.37-.81-.66-1.15-.34-.3-.74-.54-1.17-.68-.43-.15-.89-.2-1.34-.17ZM71.78,62.24c.03.47-.1.94-.39,1.32-.15.16-.34.28-.55.36-.21.08-.43.11-.65.09h-1.11v-6.86h1.11c.22-.02.44.01.65.09.21.08.4.2.55.36.29.39.42.86.39,1.34v3.3Z"/>
  <path class="cls-5" d="M76.79,55.62h-1.85v9.95h1.85v-9.95Z"/>
  <path class="cls-5" d="M77.89,57.19h2.12v8.38h1.83v-8.38h2.12v-1.57h-6.07v1.57Z"/>
  <path class="cls-5" d="M91.32,55.62h-1.87l-1.02,3.26-.48,1.71h-.1l-.47-1.71-1.05-3.26h-1.85l2.55,7v2.95h1.77v-2.93l2.54-7.02Z"/>
  <path class="cls-5" d="M92.72,55.62l-2.1,9.95h1.81l.48-2.55h2.48l.48,2.55h1.82l-2.13-9.95h-2.83,0ZM93.18,61.55l.88-4.67h.17l.88,4.67h-1.93Z"/>
  <path class="cls-5" d="M105.26,60.24v-.08c.24-.01.47-.07.68-.17.21-.1.4-.24.56-.42.27-.39.4-.85.38-1.32v-.25c.02-.33-.03-.65-.14-.96-.11-.31-.29-.58-.53-.81-.63-.46-1.41-.68-2.18-.61h-3.25v9.95h3.39c.39.04.78,0,1.16-.12.37-.12.72-.31,1.02-.56.24-.27.42-.59.54-.94s.16-.71.13-1.07v-.38c.03-.54-.11-1.08-.4-1.54-.17-.21-.37-.37-.61-.5-.23-.12-.49-.2-.75-.22h0ZM103.9,57.11c.17-.02.34,0,.5.05s.31.14.43.26c.19.26.29.58.26.91v.23c.02.32-.08.64-.27.9-.12.12-.27.21-.43.26-.16.06-.33.07-.5.06h-1.33v-2.68h1.35ZM105.21,62.81c.02.33-.08.66-.28.93-.13.12-.28.21-.45.27-.17.06-.34.07-.52.06h-1.41v-2.87h1.35c.18-.02.37,0,.54.05.18.05.34.14.47.26.21.27.31.6.28.94v.37h0Z"/>
  <path class="cls-5" d="M110.06,55.62h-1.85v9.95h1.85v-9.95Z"/>
  <path class="cls-5" d="M117.04,61.98c-.11-.33-.32-.61-.6-.81-.22-.14-.46-.24-.71-.29v-.08c.25,0,.5-.07.72-.18.22-.11.42-.27.59-.46.29-.43.43-.93.4-1.45v-.51c.02-.35-.03-.7-.15-1.02-.12-.33-.3-.63-.54-.88-.62-.5-1.4-.74-2.2-.67h-3.21v9.95h1.8v-3.66h1.1c.26-.01.51.05.73.18.18.12.32.3.4.5.09.25.15.51.16.77l.19,2.2h1.84l-.26-2.32c-.05-.43-.14-.86-.28-1.27h0ZM114.36,60.46h-1.22v-3.33h1.23c.18-.02.36,0,.53.06.17.06.32.16.45.29.21.31.31.67.28,1.04v.55c.03.37-.08.73-.29,1.03-.13.13-.28.22-.45.29-.17.06-.35.08-.53.07Z"/>
  <path class="cls-5" d="M120.56,55.62h-1.84v9.95h4.94v-1.58h-3.11v-8.37Z"/>
  <path class="cls-5" d="M129.62,65.57h1.82l-2.13-9.95h-2.83l-2.1,9.95h1.81l.48-2.55h2.48l.48,2.55ZM126.94,61.55l.88-4.67h.17l.88,4.67h-1.93Z"/>
  <path class="cls-5" d="M64.58,81.42c-.37.03-.75-.02-1.1-.16-.35-.14-.67-.35-.92-.63-.45-.64-.68-1.41-.63-2.19v-4.15c-.05-.79.17-1.58.61-2.23.24-.28.54-.49.87-.63.34-.14.7-.19,1.07-.16.5-.01,1,.07,1.48.24.4.15.79.34,1.15.56l-.21-2.55c-.25-.16-.51-.3-.79-.41-.33-.13-.67-.23-1.01-.3-.41-.08-.83-.12-1.25-.12-1.63,0-2.85.47-3.65,1.4-.8.94-1.2,2.28-1.21,4.04v4.43c-.1,1.46.33,2.9,1.2,4.07.8.95,2.03,1.42,3.68,1.42.43,0,.86-.04,1.28-.12.36-.07.71-.18,1.06-.31.27-.11.53-.24.78-.4l.21-2.62c-.36.24-.74.44-1.15.58-.47.16-.97.24-1.47.23h0Z"/>
  <path class="cls-5" d="M72.54,68.98l-3.29,14.81h2.86l.73-3.74h3.84l.74,3.74h2.85l-3.29-14.81h-4.44ZM73.29,77.75l1.33-6.8h.27l1.34,6.8h-2.94Z"/>
  <path class="cls-5" d="M87.66,68.98h-4.82v14.81h2.83v-4.44h2c1.59,0,2.75-.38,3.49-1.13.39-.45.69-.97.88-1.54.19-.57.26-1.16.22-1.76v-1.53c.08-1.19-.32-2.37-1.11-3.27-.74-.76-1.9-1.14-3.49-1.14ZM89.41,74.85c.04.56-.11,1.12-.44,1.58-.19.19-.42.34-.67.43-.25.09-.52.13-.79.1h-1.85v-5.61h1.85c.27-.03.54,0,.79.09.25.09.48.24.68.43.32.46.48,1.02.43,1.59v1.39h0Z"/>
  <path class="cls-5" d="M97.91,68.98h-2.89v14.81h2.89v-14.81Z"/>
  <path class="cls-5" d="M100.47,71.45h3.29v12.34h2.88v-12.34h3.29v-2.47h-9.47v2.47Z"/>
  <path class="cls-5" d="M113.6,68.98l-3.29,14.81h2.86l.73-3.74h3.84l.74,3.74h2.85l-3.29-14.81h-4.44ZM114.35,77.75l1.33-6.8h.27l1.34,6.8h-2.94Z"/>
  <path class="cls-5" d="M126.65,81.31v-12.33h-2.88v14.81h7.73v-2.48h-4.84Z"/>
  <path class="cls-2" d="M55.24,84.75H8.51v-29.5h46.72v29.5h0Z"/>
  <path class="cls-3" d="M49.33,55.78l-7.56,12.32,6.77,8.44,6.17-2.85v-17.91h-5.37Z"/>
  <path class="cls-6" d="M48.54,76.54l6.17,7.68v-10.53l-6.17,2.85Z"/>
  <path class="cls-6" d="M31.87,55.78l9.89,12.32,7.57-12.32h-17.46Z"/>
  <path class="cls-1" d="M39.05,72.53l2.71-4.42-9.89-12.32v14.76h.07c2.51,0,4.97.69,7.11,1.99Z"/>
  <path class="cls-3" d="M31.94,70.54h-.07v13.69l7.18-11.7c-2.14-1.3-4.6-1.99-7.11-1.99Z"/>
  <path class="cls-6" d="M44.36,78.46l4.18-1.93-6.77-8.44-2.72,4.42c2.32,1.41,4.16,3.48,5.31,5.94"/>
  <path class="cls-4" d="M39.05,72.53l-7.18,11.7,12.48-5.76c-1.14-2.46-2.99-4.52-5.31-5.94"/>
  <path class="cls-1" d="M48.54,76.54l-4.18,1.93c.84,1.8,1.27,3.77,1.27,5.76h9.08l-6.17-7.68Z"/>
  <path class="cls-3" d="M31.87,84.22h13.75c0-1.99-.43-3.95-1.27-5.76l-12.48,5.76Z"/>
  <path class="cls-3" d="M9.05,55.78v17.91l6.17,2.85,6.77-8.44-7.57-12.32h-5.37Z"/>
  <path class="cls-6" d="M9.05,84.22l6.17-7.69-6.17-2.85v10.53h0Z"/>
  <path class="cls-6" d="M14.42,55.78l7.56,12.32,9.89-12.32H14.42Z"/>
  <path class="cls-4" d="M24.7,72.53l-2.72-4.42,9.89-12.32v14.76h-.06c-2.51,0-4.97.68-7.11,1.99"/>
  <path class="cls-6" d="M31.81,70.54h.06v13.69l-7.17-11.7c2.14-1.3,4.6-1.99,7.11-1.99Z"/>
  <path class="cls-6" d="M19.39,78.46l-4.18-1.93,6.77-8.44,2.72,4.42c-2.32,1.41-4.16,3.48-5.31,5.94"/>
  <path class="cls-4" d="M24.7,72.53l7.17,11.7-12.48-5.76c1.15-2.46,2.99-4.52,5.31-5.94"/>
  <path class="cls-1" d="M15.21,76.54l4.18,1.93c-.84,1.8-1.27,3.77-1.27,5.76h-9.08l6.17-7.68Z"/>
  <path class="cls-3" d="M31.87,84.22h-13.75c0-1.99.43-3.95,1.27-5.76l12.48,5.76Z"/>
</svg>