<?xml version="1.0" encoding="UTF-8"?>
<svg id="Layer_1" data-name="Layer 1" xmlns="http://www.w3.org/2000/svg" viewBox="0 0 140 140">
  <defs>
    <style>
      .cls-1, .cls-2 {
        fill-rule: evenodd;
      }

      .cls-2 {
        fill: #b01116;
      }
    </style>
  </defs>
  <g id="g12">
    <g id="g4367">
      <path id="path614" class="cls-1" d="M28.37,99.29c0,1.24.65,2.63,1.78,3.87l.42-.46c-.71-.71-1.13-1.59-1.13-2.4,0-.7.54-1.29,1.13-1.29h1.31v3.45l1.24,1v-6.85h1.31l-.71-1.29h-6.72l.72,1.29h4.15v1.11h-1.96c-.83,0-1.54.7-1.54,1.57"/>
      <path id="path618" class="cls-1" d="M32.29,95.31h.54c-.48-.81-.95-1.63-1.49-2.4-.6-.93-1.37-1.52-2.08-1.52-.18,0-.36.06-.53.12l.59,1.4c.3-.17.54-.22.65-.22.42,0,.77.22,1.01.58l1.31,2.05h0Z"/>
      <path id="path622" class="cls-1" d="M34.61,98.35c.71,2.35,2.02,3.87,3.32,3.87.59,0,1.13-.59,1.13-1.29,0-.53-.3-1.16-.72-1.75h1.79v3.28l1.25,1v-6.85h1.3l-.71-1.29h-8.49l.71,1.29h5.95v1.11h-3.09l-.18.29c.59.47.95,1.23.95,1.88,0,.41-.24.7-.6.7-.82,0-1.66-.99-2.13-2.46l-.47.23h0Z"/>
      <path id="path626" class="cls-1" d="M42.4,96.6h1.25v5.85l1.24,1v-6.85h1.3l-.71-1.29h-.77c-.36-.29-.53-.76-.53-1.23,0-1,1.19-1.87,2.67-1.82,2.86,0,5.47.82,7.49,2.46l.3-.23c-2.14-2.06-5.17-3.11-8.44-3.11-1.78,0-3.14.88-3.14,1.99,0,.82.36,1.52.95,1.93h-2.32l.72,1.29Z"/>
      <path id="path630" class="cls-1" d="M49.23,103.58l.6-.47-2.02-2.17c.53-.17.9-.69,1.01-1.34.47.64,1.01.99,1.37.99s.71-.06.95-.29v-1.35c-.24.3-.65.46-1.19.46-.42,0-.77-.12-1.06-.35v-2.45h2.13l-.72-1.29h-5.11l.72,1.29h1.72v1.81c0,.29-.12.53-.24.64-.24-.23-.48-.4-.66-.4-.24,0-.41.23-.41.52,0,.41.3,1.06.83,1.75l2.08,2.64h0Z"/>
      <path id="path634" class="cls-1" d="M53.8,95.31h-3.81l.72,1.29h3.09v-1.29h0ZM51.31,99.18c0,1.23,1.42,2.81,2.49,2.81v-1.1c-.18,0-.35.05-.48.05-.71,0-1.24-.53-1.24-1.11,0-.7.77-1.29,1.72-1.29v-1.11c-.18-.06-.41-.13-.59-.13-1.07,0-1.9.83-1.9,1.88M53.8,101.99c.48,0,1.08-.29,1.72-.87v1.34l1.25,1v-6.85h1.31l-.72-1.29h-3.57v1.29h1.72v2.16c-.54-.7-1.13-1.17-1.72-1.34v1.11c.54,0,1.13.35,1.72.94-.54.7-1.13,1.16-1.72,1.41v1.1h0Z"/>
      <path id="path638" class="cls-1" d="M60.92,99.29c0,.82.77,2,1.3,1.94.12,0,.3-.24.3-.53v-.41c0-.18.12-.36.24-.36h1.59v2.52l1.24,1v-6.85h1.3l-.71-1.29h-5.63l-.1,1.29h3.9v2.05h-2.84c-.29,0-.59.29-.59.63"/>
      <path id="path642" class="cls-1" d="M66.59,96.6h1.18v5.85l1.24,1v-6.85h1.3l-.71-1.29h-3.72l.71,1.29Z"/>
      <path id="path646" class="cls-1" d="M73.03,95.31h-3.72l.71,1.29h3.01v-1.29ZM70.6,99.18c0,1.23,1.3,2.81,2.43,2.81v-1.1c-.18,0-.36.05-.53.05-.65,0-1.18-.53-1.18-1.11,0-.7.77-1.29,1.72-1.29v-1.11c-.18-.06-.42-.13-.59-.13-1.06,0-1.84.83-1.84,1.88M73.03,101.99c.47,0,1.06-.29,1.65-.87v1.34l1.3,1v-6.85h1.25l-.71-1.29h-3.48v1.29h1.65v2.16c-.47-.7-1.06-1.17-1.65-1.34v1.11c.53,0,1.12.35,1.65.94-.47.7-1.13,1.16-1.65,1.41v1.1Z"/>
      <path id="path650" class="cls-1" d="M79.06,99.82c.23-.23.73-.58,1.14-.58l.61-.11-.1-1.01c-1.32-.11-1.57-.38-1.57-.38-.46-.31-.71-.63-.72-.91-.01-.42.24-.82.65-.99v-.95h-.12c-.82,0-1.42.71-1.42,1.52,0,.65.54,1.35,1.42,1.94-.71.23-1.18.76-1.18,1.35,0,.71.59,1.53,1.3,1.99v-.81c-.23-.12-.35-.3-.35-.54,0-.17.12-.41.35-.52M79.41,95.78c-.12,0-.24,0-.36.07v-.95M79.06,101.69c.36.23.71.36,1.06.36.71,0,1.43-.36,1.96-.94v1.34l1.3,1v-6.85h1.24l-.71-1.29h-3.08l.72,1.29h.53v2.81c-.71,1-1.72,1.58-2.6,1.58-.18,0-.3,0-.41-.11v.81h0Z"/>
      <path id="path654" class="cls-1" d="M84.32,96.6h1.18v5.85l1.3,1v-6.85h1.24l-.71-1.29h-.94c-.3-1.93-1.36-3.4-2.54-3.4-.83,0-1.49.82-1.49,1.76,0,.64.12,1.1.36,1.46h.47c-.06-.24-.12-.53-.12-.88,0-.64.47-1.17,1.12-1.11.71,0,1.36.88,1.54,2.17h-2.13l.72,1.29Z"/>
      <path id="path658" class="cls-1" d="M88.46,99.29c0,1.24.65,2.63,1.77,3.87l.41-.46c-.71-.71-1.19-1.59-1.13-2.4,0-.7.48-1.29,1.13-1.29h1.24v3.45l1.3,1v-6.85h1.24l-.71-1.29h-6.62l.71,1.29h4.08v1.11h-1.89c-.88,0-1.54.7-1.54,1.57"/>
      <path id="path662" class="cls-1" d="M94.67,99.7c0,.64,1.24,2.06,1.77,2.06.18,0,.29-.24.29-.53v-.65h1.06v-1.3h-1.06v-2.68h1.06v-1.29h-4.37l.71,1.29h1.3v2.68h-.42c-.17,0-.34.18-.34.41M97.79,100.59h1.06v1.87l1.24,1v-6.85h1.3l-.71-1.29h-2.9v1.29h1.06v2.68h-1.06v1.3Z"/>
      <path id="path666" class="cls-1" d="M104.41,103.58l.59-.47-2.01-2.17c.53-.17.88-.69,1.01-1.34.47.64,1,.99,1.36.99s.71-.06.94-.29v-1.35c-.17.3-.65.46-1.18.46-.41,0-.76-.12-1.06-.35v-2.45h2.13l-.71-1.29h-5.08l.7,1.29h1.72v1.81c0,.29-.06.53-.23.64-.24-.23-.48-.4-.65-.4-.24,0-.41.23-.41.52,0,.41.3,1.06.88,1.75l2.01,2.64h0Z"/>
      <path id="path670" class="cls-1" d="M106.54,99.29c0,1.24.65,2.63,1.77,3.87l.41-.46c-.71-.71-1.12-1.59-1.12-2.4,0-.7.53-1.29,1.12-1.29h1.3v3.45l1.24,1v-6.85h1.3l-.71-1.29h-6.69l.72,1.29h4.14v1.11h-1.89c-.89,0-1.6.7-1.6,1.57"/>
      <path id="path674" class="cls-1" d="M110.44,106.91c1.19,0,2.19-.82,2.19-1.81,0-.88-1.12-2.05-1.95-2.05-.41,0-.89.23-1.3.7l.83.88c.23-.46.59-.7.95-.7.23,0,.47.18.47.41,0,.82-.65,1.46-1.54,1.52-1.24,0-2.42-.82-3.25-2.11l-.35.36c1.12,1.75,2.6,2.81,3.96,2.81"/>
      <path id="path676" d="M55.75,81.98h-1.55v-11.68h1.55v11.68Z"/>
      <path id="path678" d="M59.99,81.98h-1.55v-11.68h1.55v11.68Z"/>
      <path id="path682" d="M64.76,70.31l3.68,9.81,3.69-9.81h2.13v11.68h-1.47v-9.72h-.03l-3.65,9.72h-1.32l-3.65-9.72h-.03v9.72h-1.47v-11.68h2.12,0Z"/>
      <path id="path686" d="M82.29,80.67c.69,0,1.22-.18,1.61-.56.39-.37.58-.88.58-1.54,0-.38-.07-.7-.21-.95-.14-.25-.33-.45-.56-.6-.23-.15-.51-.25-.81-.31-.31-.06-.62-.09-.95-.09h-3.55v4.04h3.89ZM81.51,75.33c.88,0,1.52-.16,1.9-.47.39-.31.58-.78.58-1.4,0-.41-.06-.74-.2-.98-.13-.24-.31-.43-.54-.55-.23-.13-.49-.22-.79-.26-.3-.04-.62-.05-.95-.05h-3.11v3.71h3.11ZM81.08,70.31c.25,0,.52,0,.81,0,.29,0,.57.02.86.05.28.03.55.07.79.12.24.06.46.14.63.25.38.23.71.54.97.95.27.4.4.9.4,1.49,0,.62-.15,1.16-.45,1.61-.3.45-.73.79-1.28,1v.03c.72.15,1.27.48,1.65.98s.57,1.11.57,1.83c0,.43-.07.84-.23,1.24-.15.4-.38.76-.68,1.07-.3.31-.67.56-1.11.75-.44.19-.95.29-1.53.29h-5.64v-11.68h4.23Z"/>
      <path id="path690" class="cls-2" d="M70.39,57.92c-.93.02-1.97,0-2.68.02-.27-.1-.13-.41-.1-.59.22-1.22.42-2.16.04-3.55-.31-1.42-1.4-3.21-2.23-4.35-1.62-2.14-2.55-3.65-3.07-5.57-.54-1.82-.42-3.71.16-5.31.95-2.64,2.55-4.47,2.75-4.63.53-.61.64-.74,1.83-.72,3.58-.34,8.2.06,11.69.67.2.03.35.06.33.3-.01.13-.07.26-.15.29-.73.11-2.69.37-4.7,1.46-2.07,1.03-4.45,3.3-5.06,6.41-.15,1.02-.18,2.15.13,3.82.22,1.17.82,2.97,1.29,4.24.29,1.16.74,2.05.71,4.26-.02.69-.25,1.7-.48,2.44-.2.73-.33.78-.47.8"/>
      <path id="path694" class="cls-2" d="M63.35,58.7c-.89.27-1.68.51-2.36.71-.29-.02-.24-.36-.26-.54-.19-1.29-.24-2.17-1.04-3.36-.63-.96-1.77-2.04-3.88-3.72-2.13-1.63-3.44-2.71-4.46-4.43-1.01-1.61-1.28-3.36-1.15-5.07.3-2.85,1.21-4.69,1.29-4.89.09-.27.26-.66.7-.82,3.31-1.38,8.19-2.6,12.04-3.14.39-.04.57-.08.62.12.03.12,0,.25-.07.3-.67.29-2.54,1.07-4.14,2.63-1.17,1.13-3.19,3.94-2.95,7.25.16,1.21.38,2.48,1.21,3.89.6,1.03,1.61,2.59,2.4,3.68.59,1.04,1.55,1.89,2.11,4.03.16.67.22,1.7.19,2.48,0,.76-.11.84-.24.9"/>
      <path id="path698" class="cls-2" d="M56.91,61.69c-.76.53-1.57,1.11-2.15,1.52-.24.04-.31-.32-.39-.49-.59-1.16-.99-1.86-1.8-2.67-.65-.71-2.29-1.58-4.82-2.51-2.53-.88-4.14-1.58-5.58-2.96-1.26-1.2-2.15-2.54-2.65-4.32-.78-2.84-.07-5.18,0-5.59.05-.22.04-.57.47-.99,2.83-2.37,7.07-4.83,10.49-6.41.38-.13.52.33.23.57-.54.48-2.1,1.74-2.96,3.86-.68,1.31-1.93,4.37-.65,7.57.4,1.11,1.06,2.22,2.27,3.35.87.81,2.35,1.95,3.44,2.73.89.8,2.06,1.31,3.24,3.18.36.59.66,1.43.88,2.18.24.72.11.87,0,.96"/>
      <path id="path702" class="cls-2" d="M51.66,66.23c-.58.73-1.21,1.46-1.64,2.02-.21.1-.39-.22-.51-.36-.89-.95-1.42-1.53-2.42-2.08-.82-.5-2.69-.88-5.38-1.06-2.64-.19-4.37-.26-6.19-1.08-1.56-.8-2.74-1.77-3.73-3.34-1.48-2.59-1.67-4.45-1.75-5.32-.13-.5.08-.86.34-1.25,1.51-2.19,4.96-6.33,8.08-8.82.33-.23.61.17.4.49-.22.47-1.25,1.61-1.71,4.4-.25,1.5-.54,4.69,1.52,7.45.7.94,1.69,1.72,3.17,2.46,1.07.53,2.81,1.16,4.08,1.61,1.08.52,2.3.83,3.89,2.35.51.46,1.07,1.12,1.5,1.78.42.61.42.62.36.75"/>
      <path id="path706" class="cls-2" d="M48,72.2c-.31.88-.6,1.47-.97,2.3-.21.24-.35.03-.51-.04-1.11-.75-1.56-.97-2.75-1.32-.99-.19-2.54-.27-5.53.53-2.63.45-4.34,1.06-6.22.82-1.9-.24-3.22-.86-4.62-2.11-2.12-2.11-3.02-3.67-3.41-4.41-.12-.2-.18-.34-.16-.44.83-3.35,3.41-8.68,5.4-11.89.24-.32.57,0,.47.37-.13.52-.72,1.91-.42,4.68.19,1.53.8,4.79,3.78,6.75.95.69,2.13,1.2,3.78,1.41,1.18.15,3.05.17,4.37.32,1.18.17,2.4.08,4.35,1.1.59.33,1.44.92,1.89,1.3.58.46.57.5.56.65"/>
      <path id="path710" class="cls-2" d="M46.06,78.98c-.02.91-.08,1.8-.14,2.71-.03.12-.3.14-.45.05-1.28-.4-1.87-.66-3.1-.61-.89.06-1.72.07-5.27,1.96-2.81,1.62-2.49,1.45-3.52,1.97,0,0-3.13,1.58-6.61.3-3.6-1.47-5.24-3.87-5.26-3.87.1-3.95.48-8.58,1.69-12.7.11-.38.64-.28.59.18,0,0,.07,2.78,1.32,5.27.72,1.2,1.94,3.59,5.4,4.62,1.14.28,2.48.34,4.08.13,1.18-.16,2.45-.63,3.74-.96,1.15-.16,2.35-.51,4.53-.23.66.1,1.72.5,2.28.71.71.22.71.42.71.49"/>
      <path id="path714" class="cls-2" d="M77.15,59.05c-.9-.27-1.67-.4-2.35-.6-.23-.17.05-.42.13-.59.63-1.07,1.1-2.15,1.13-3.61-.04-1.58-.63-3.46-1.04-4.8-.7-2.64-1.2-4.34-1.1-6.27.04-1.9.61-3.63,1.65-4.98,1.63-2.31,3.82-3.39,4.06-3.54.56-.32.79-.46,1.06-.37,4.78,1.05,8.98,3.01,11.52,4.4.19.11.65.28.59.57-.04.16-.24.28-.35.25-.71-.15-2.62-.47-4.88-.06-2.3.37-5.3,1.67-6.78,4.6-.45.93-.73,1.82-.94,3.5-.15,1.18-.18,3.08-.12,4.43-.07,1.24.19,2.71-.57,4.64-.23.65-.58,1.39-1.03,2.03-.39.71-.76.45-.98.42"/>
      <path id="path718" class="cls-2" d="M84.05,62.65c-.78-.52-1.24-.91-1.83-1.3-.17-.24-.1-.27.02-.41.91-.84,1.74-1.36,2.2-2.74.69-1.75.67-3.83.68-5.24.11-2.72,0-4.22.52-6.06.6-1.8,1.68-3.46,3.08-4.44,2.25-1.73,4.6-2.22,4.86-2.3.79-.27,1.02-.17,1.64.21,1.4.85,7.3,5.08,9.53,7.71.29.4-.2.59-.35.49-.64-.35-2.37-1.22-4.65-1.5-2.31-.33-5.56-.23-7.83,2.13-.71.75-1.15,1.93-1.85,3.47-.5,1.09-.91,3.04-1.25,4.34-.43,1.17-.85,2.76-2.18,3.98-.41.55-1.03,1.15-1.65,1.62-.59.56-.75.13-.95.03"/>
      <path id="path722" class="cls-2" d="M89.08,67.62c-.57-.74-.88-1.09-1.32-1.65-.08-.28-.01-.29.15-.37.93-.63,2.01-1.11,3.05-2.17,1.21-1.44,1.86-3.42,2.32-4.75.81-2.6,1.34-4,2.43-5.58,1.14-1.51,2.72-2.79,4.36-3.28,2.68-.92,5.09-.69,5.37-.68.64.07.72.2.89.43,2.35,2.56,5.33,7.46,7.11,10.75.14.47-.38.5-.49.36-.5-.62-1.77-2.03-3.84-2.96-2.74-1.38-4.64-2-8.24.01-.91.49-1.65,1.02-2.81,2.26-.81.87-1.89,2.59-2.62,3.71-.78.97-1.69,2.18-3.23,3.14-.57.39-1.4.82-2.14,1.07-.73.34-.84-.12-.99-.28"/>
      <path id="path726" class="cls-2" d="M92.48,73.71c-.29-.94-.52-1.35-.77-1.97-.07-.25.06-.32.25-.33,1.08-.2,2.15-.38,3.41-.99,1.57-1.02,2.78-2.67,3.6-3.81,1.54-2.09,2.44-3.4,3.99-4.56,1.53-1.12,3.36-1.88,5.08-1.86,2.83-.1,5.09.84,5.36.94.6.25.73.33.82.6,1.39,2.6,3.21,9.06,3.57,12.36,0,.49-.51.36-.57.2-.29-.74-1.03-2.62-2.74-4.12-1.74-1.53-4.67-2.99-7.95-2.28-1.02.2-1.92.49-3.35,1.41-1,.65-2.57,1.92-3.64,2.71-.99.67-2.07,1.37-3.89,1.91-.66.21-1.48.26-2.26.36-.8.11-.8-.35-.9-.55"/>
      <path id="path730" class="cls-2" d="M93.82,80.92c0-.98,0-1.42-.06-2.09,0-.27.15-.29.34-.24,1.09.13,2.08.25,3.46.04,1.81-.5,3.36-1.8,4.49-2.65,2.1-1.53,3.35-2.7,5.17-3.35,1.8-.56,3.91-.56,5.58-.12,2.68.82,4.5,2.48,4.72,2.65.32.2.39.6.4.89.51,3.81.47,8.42-.02,12.27-.07.17-.18.23-.3.22-.14-.01-.24-.1-.27-.22-.09-.78-.34-2.19-1.52-4.13-1.2-1.98-3.49-4.38-6.84-4.69-1.03-.11-2.03-.12-3.67.33-1.15.32-3.03,1.03-4.25,1.51-1.15.34-2.38.73-4.28.7-.69,0-1.49-.2-2.26-.33-.8-.12-.66-.56-.7-.79"/>
    </g>
  </g>
</svg>