<?xml version="1.0" encoding="UTF-8"?>
<svg id="Layer_1" data-name="Layer 1" xmlns="http://www.w3.org/2000/svg" viewBox="0 0 140 140">
  <defs>
    <style>
      .cls-1 {
        fill: #0299a8;
      }

      .cls-2 {
        fill: #021889;
      }

      .cls-3 {
        fill: #98989a;
      }
    </style>
  </defs>
  <path class="cls-2" d="M11.97,78.67s.11-.13.12-.28c.29-5.73.82-11.45,1.15-17.18h4.75l4.58,13.41,4.93-13.41h4.64l1.16,18.5h-3.59l-.64-14.34-.17-.11-5.16,14.22c-.2.24-2.39.1-2.85.06l-.09-.14-4.6-14.15-.88,14.45h-3.36c.01-.34-.02-.69,0-1.03Z"/>
  <path class="cls-1" d="M107.39,54.85l3.95,2.94c.43.45.57.96.4,1.57-.09.32-2.57,3.7-2.91,4.03-.59.56-1.23.61-1.94.22-.74-.41-2.72-1.93-3.38-2.53-.56-.51-.93-.9-.7-1.73.1-.36,2.57-3.71,2.96-4.1.18-.18.42-.21.58-.4h1.04Z"/>
  <path class="cls-2" d="M120.81,61.93c.98-.15,1.91.25,2.51,1.02,1.13,2.15,2.96,4.25,4.03,6.39.71,1.41.59,2.52-.68,3.53-1.34,1.07-4.78,3.19-6.34,3.97-1.44.72-2.51.62-3.54-.68s-3.47-5.1-4.12-6.52c-.59-1.28-.33-2.39.75-3.27,1.21-.98,5.13-3.45,6.54-4.12.24-.11.59-.28.84-.31Z"/>
  <path class="cls-2" d="M91.28,60.06v11.56l4.7-5.32h4.23l-5.32,5.47,5.95,7.37.18.57h-4.41l-4.17-5.73c-.19-.11-1.16.97-1.16,1.05v4.68h-3.59v-19.14c.07-.12.16-.14.29-.17,1.02-.21,2.25-.22,3.3-.35Z"/>
  <path class="cls-2" d="M75.39,73.93c.22,1.35,1.18,2.25,2.44,2.72.31.11,1.3.41,1.56.41h2.03v2.49c-.07.12-.16.15-.29.17-5.76,1.04-10.46-3.25-8.67-9.11s10.26-6.39,12.24-.58c.35,1.02,1,3.9-.79,3.9h-8.52ZM81.77,71.39c-.2-4.12-5.83-3.78-6.38,0h6.38Z"/>
  <path class="cls-2" d="M39.56,65.95c1.73-.22,4.03-.12,5.49.94,2.66,1.95,1.62,6.98,1.97,9.83.1.81.38,1.47,1,2.01-.85,1.51-3.5,1.29-3.99-.42-2.24,2.65-8.14,1.85-8.52-2.03-.46-4.65,4.73-5.4,8.23-5.49.03-2.24-2.45-2.57-4.17-2.2v-2.66ZM41.82,73.12c-.88.25-1.84.38-2.5,1.09-1,1.07-.43,2.92,1.1,3.08,2.06.2,3.28-.81,3.42-2.84.03-.4.1-1.05-.17-1.33h-1.86Z"/>
  <path class="cls-2" d="M66.93,66.07h3.07l.17.17v2.6h-3.25v6.53c0,.37.38,1.04.7,1.26.99.69,1.89.07,2.89-.17v3.01c-.45.04-.89.18-1.34.23-2.15.23-4.47.09-5.28-2.25-.09-.25-.34-1.19-.34-1.39v-7.23h-2.32v-2.77h2.32v-2.6l.19-.15c.91,0,1.9-.32,2.78-.36.13,0,.39.04.39.17v2.95Z"/>
  <path class="cls-2" d="M58.58,66.3v2.89c-1.25-.54-2.47-1.02-3.88-.8-.88.14-1.35.99-1.02,1.81.29.72,2.96,1.38,3.78,1.78,1.91.96,2.84,2.67,2.17,4.78-1.06,3.34-6.52,3.53-9.17,2.19v-2.83c1.3.68,4.92,1.82,5.78.16.95-1.84-2.59-2.39-3.66-2.91-2.3-1.14-3.36-3.54-1.66-5.74s5.2-2.07,7.65-1.33Z"/>
  <path class="cls-3" d="M109.52,84.41c-.21-.22-.33-.62-.34-.92-.03-.74.17-2.84.31-3.6.09-.5.45-.92.97-1,.6-.08,1.9.05,2.56.12,1.22.12,2.38.01,2.38,1.56,0,.84-.13,2.28-.24,3.12-.18,1.4-.95,1.37-2.14,1.33-.73-.02-2.05-.13-2.76-.26-.2-.04-.6-.22-.74-.36Z"/>
  <path class="cls-2" d="M103.34,66.3c.67-.19.61.68.81,1.16.5-.33.24-1.33,1.04-1.16v1.68c0,.07-.24.22-.35.17l-.12-1.15-.35,1.16c-.47.11-.53-1.04-.64-1.04l-.08.85-.33.19v-1.85Z"/>
  <polygon class="cls-2" points="103.1 66.3 103.1 66.65 102.64 66.65 102.62 67.96 102.29 68.15 102.29 66.65 101.71 66.65 101.71 66.3 103.1 66.3"/>
</svg>