<?xml version="1.0" encoding="UTF-8"?>
<svg id="Layer_1" data-name="Layer 1" xmlns="http://www.w3.org/2000/svg" viewBox="0 0 140 140">
  <defs>
    <style>
      .cls-1 {
        fill: #76b900;
      }
    </style>
  </defs>
  <path d="M127.83,76.61v-.32h.2c.1,0,.26.02.26.14s-.08.18-.22.18h-.24M127.83,76.83h.14l.32.57h.34l-.36-.59c.18.02.32-.12.34-.3v-.04c0-.32-.22-.41-.59-.41h-.53v1.36h.3v-.59M129.37,76.73c0-.81-.63-1.28-1.32-1.28s-1.32.47-1.32,1.28.63,1.28,1.32,1.28,1.32-.47,1.32-1.28M128.98,76.73c.02.51-.39.95-.89.97h-.04c-.53.02-.99-.41-1.01-.93s.41-.99.93-1.01.99.41,1.01.93t0,.04Z"/>
  <path d="M81.07,63.19v14.37h4.05v-14.37h-4.05ZM49.14,63.17v14.39h4.09v-11.17l3.18.02c1.05,0,1.78.26,2.27.79.65.69.89,1.78.89,3.81v6.57h3.97v-7.97c0-5.68-3.61-6.45-7.16-6.45.04,0-7.26,0-7.26,0ZM87.61,63.19v14.37h6.59c3.51,0,4.66-.59,5.88-1.89.87-.91,1.44-2.94,1.44-5.15,0-2.03-.47-3.83-1.32-4.95-1.48-2.01-3.65-2.39-6.89-2.39-.02,0-5.7,0-5.7,0ZM91.63,66.31h1.74c2.53,0,4.18,1.14,4.18,4.07s-1.64,4.09-4.18,4.09h-1.74v-8.17ZM75.23,63.19l-3.39,11.39-3.24-11.39h-4.38l4.62,14.37h5.84l4.68-14.37s-4.14,0-4.14,0ZM103.4,77.58h4.05v-14.39h-4.05v14.39ZM114.8,63.19l-5.66,14.37h3.99l.89-2.55h6.71l.85,2.53h4.36l-5.72-14.35s-5.43,0-5.43,0ZM117.41,65.82l2.47,6.71h-4.99s2.51-6.71,2.51-6.71Z"/>
  <path class="cls-1" d="M22.97,65.58v-1.97c.2-.02.39-.02.59-.02,5.41-.16,8.96,4.66,8.96,4.66,0,0-3.83,5.29-7.95,5.29-.55,0-1.07-.08-1.6-.26v-5.98c2.11.26,2.53,1.18,3.79,3.28l2.82-2.37s-2.07-2.7-5.51-2.7c-.36,0-.73.02-1.09.06M22.97,59.05v2.94l.59-.04c7.52-.26,12.43,6.16,12.43,6.16,0,0-5.63,6.87-11.49,6.87-.51,0-1.01-.04-1.52-.14v1.82c.41.04.83.08,1.26.08,5.45,0,9.41-2.8,13.24-6.08.63.51,3.22,1.74,3.77,2.27-3.63,3.04-12.1,5.49-16.9,5.49-.47,0-.89-.02-1.34-.08v2.59h20.74v-21.89h-20.76ZM22.97,73.3v1.56c-5.05-.91-6.45-6.16-6.45-6.16,0,0,2.43-2.68,6.45-3.12v1.7h-.02c-2.11-.26-3.77,1.72-3.77,1.72,0,0,.95,3.32,3.79,4.3M14.02,68.48s2.98-4.42,8.96-4.86v-1.6c-6.63.53-12.34,6.12-12.34,6.12,0,0,3.24,9.38,12.34,10.24v-1.7c-6.69-.83-8.96-8.19-8.96-8.19Z"/>
</svg>