<?xml version="1.0" encoding="UTF-8"?>
<svg id="Layer_1" data-name="Layer 1" xmlns="http://www.w3.org/2000/svg" xmlns:xlink="http://www.w3.org/1999/xlink" viewBox="0 0 140 140">
  <defs>
    <style>
      .cls-1 {
        clip-path: url(#clippath-6);
      }

      .cls-2 {
        clip-path: url(#clippath-7);
      }

      .cls-3 {
        clip-path: url(#clippath-4);
      }

      .cls-4 {
        fill: url(#linear-gradient-2);
      }

      .cls-5 {
        fill: #0578d6;
      }

      .cls-6 {
        fill: none;
      }

      .cls-7 {
        fill: url(#linear-gradient-4);
      }

      .cls-8 {
        fill: url(#linear-gradient-3);
      }

      .cls-9 {
        clip-path: url(#clippath-1);
      }

      .cls-10 {
        fill: url(#linear-gradient-5);
      }

      .cls-11 {
        clip-path: url(#clippath-5);
      }

      .cls-12 {
        clip-path: url(#clippath-8);
      }

      .cls-13 {
        fill: url(#linear-gradient-8);
      }

      .cls-14 {
        clip-path: url(#clippath-3);
      }

      .cls-15 {
        fill: url(#linear-gradient-7);
      }

      .cls-16 {
        fill: url(#linear-gradient-9);
      }

      .cls-17 {
        fill: url(#linear-gradient-6);
      }

      .cls-18 {
        clip-path: url(#clippath-2);
      }

      .cls-19 {
        fill: url(#linear-gradient);
      }

      .cls-20 {
        clip-path: url(#clippath);
      }
    </style>
    <clipPath id="clippath">
      <path class="cls-6" d="M12.18,56.3v9.13c0-2.77,1.8-4.43,4.43-4.43v-4.7c0-1.22-.99-2.22-2.21-2.22-1.22,0-2.22.99-2.22,2.21h0Z"/>
    </clipPath>
    <linearGradient id="linear-gradient" x1="254.29" y1="-430.41" x2="255.58" y2="-430.41" gradientTransform="translate(-3028.59 -1742.93) rotate(90) scale(7.07)" gradientUnits="userSpaceOnUse">
      <stop offset="0" stop-color="#ffc80f"/>
      <stop offset=".52" stop-color="#f78c21"/>
      <stop offset="1" stop-color="#f15930"/>
    </linearGradient>
    <clipPath id="clippath-1">
      <path class="cls-6" d="M16.61,61.01c-2.63,0-4.43,1.66-4.43,4.43v12.69c0,5.07,2.93,7.75,7.84,7.75,1.04.01,2.06-.15,3.04-.49-4.66.79-6.46-2.4-6.46-6v-14.79h5.4c1.24,0,2.07-.74,2.07-1.8s-.83-1.8-2.07-1.8l-5.4.02Z"/>
    </clipPath>
    <linearGradient id="linear-gradient-2" x1="251.1" y1="-422.32" x2="252.39" y2="-422.32" gradientTransform="translate(3421.94 -5631.92) rotate(-180) scale(13.51)" gradientUnits="userSpaceOnUse">
      <stop offset="0" stop-color="#ed1c24"/>
      <stop offset=".19" stop-color="#ed1d29"/>
      <stop offset=".4" stop-color="#ed2236"/>
      <stop offset=".62" stop-color="#ed294d"/>
      <stop offset=".85" stop-color="#ee336c"/>
      <stop offset="1" stop-color="#ee3b84"/>
    </linearGradient>
    <clipPath id="clippath-2">
      <path class="cls-6" d="M16.61,79.37c0,3.6,1.8,6.78,6.46,6,1.85-.69,3.36-2.08,4.2-3.87l-2.08-3.72c-.92,2.77-2.54,4.25-4.75,4.25s-3.83-1.34-3.83-4.39v1.75Z"/>
    </clipPath>
    <linearGradient id="linear-gradient-3" x1="260.26" y1="-405.94" x2="261.55" y2="-405.94" gradientTransform="translate(-2628.2 4206.21) scale(10.16)" gradientUnits="userSpaceOnUse">
      <stop offset="0" stop-color="#ee3b84"/>
      <stop offset=".31" stop-color="#c53f8c"/>
      <stop offset="1" stop-color="#6b499d"/>
    </linearGradient>
    <clipPath id="clippath-3">
      <path class="cls-6" d="M23.76,73.42c0,7.38,4.84,12.5,12.64,12.5,1.95.04,3.89-.4,5.63-1.29-10.51,1.57-13.84-4.06-13.84-11.3,0-5.26,3.23-8.86,7.89-8.86,1.53,0,3.04.32,4.43.98.49.24,1.02.36,1.57.37.96.06,1.79-.67,1.84-1.63,0-.07,0-.14,0-.21,0-.69-.41-1.39-1.39-1.84-2.02-.95-4.23-1.42-6.46-1.39-7.29,0-12.32,5.17-12.32,12.69h0Z"/>
    </clipPath>
    <linearGradient id="linear-gradient-4" x1="255.05" y1="-421.5" x2="256.34" y2="-421.5" gradientTransform="translate(-5433.01 -3240.99) rotate(90) scale(12.97)" gradientUnits="userSpaceOnUse">
      <stop offset="0" stop-color="#ed2024"/>
      <stop offset=".2" stop-color="#ed2128"/>
      <stop offset=".4" stop-color="#ed2535"/>
      <stop offset=".62" stop-color="#ed2b4a"/>
      <stop offset=".83" stop-color="#ee3368"/>
      <stop offset="1" stop-color="#ee3b84"/>
      <stop offset="1" stop-color="#ee3b84"/>
    </linearGradient>
    <clipPath id="clippath-4">
      <path class="cls-6" d="M23.76,73.42c0-4.88,5.9-8.95,12.32-8.95,1.53,0,3.04.33,4.43.98.49.24,1.02.36,1.57.37.96.06,1.79-.67,1.84-1.63,0-.07,0-.14,0-.21,0-.69-.41-1.39-1.39-1.84-2.02-.95-4.23-1.42-6.46-1.39-7.29,0-12.32,5.17-12.32,12.69h0Z"/>
    </clipPath>
    <linearGradient id="linear-gradient-5" x1="257.86" y1="-411" x2="259.16" y2="-411" gradientTransform="translate(-4001.65 6482.74) scale(15.61)" gradientUnits="userSpaceOnUse">
      <stop offset="0" stop-color="#ffc80f"/>
      <stop offset=".15" stop-color="#fcb012"/>
      <stop offset=".55" stop-color="#f5741b"/>
      <stop offset=".84" stop-color="#f14e21"/>
      <stop offset="1" stop-color="#ef4023"/>
    </linearGradient>
    <clipPath id="clippath-5">
      <path class="cls-6" d="M60.98,83.88l.1-.09-.1.09M50.6,62.8c-.95,1.08-1.48,2.47-1.46,3.9,0,2.58,1.15,4.47,4.06,6.5l3.46,2.4c3.46,2.4,5.07,4.93,5.07,6.55.02.6-.21,1.19-.64,1.62,1.29-1.26,2.01-2.99,1.98-4.8,0-2.77-1.11-4.61-3.87-6.55l-3.78-2.63c-3.32-2.31-4.75-4.57-4.75-6.09,0-.57.23-1.13.64-1.52-.24.19-.47.39-.69.6h-.02Z"/>
    </clipPath>
    <linearGradient id="linear-gradient-6" x1="261.88" y1="-409.78" x2="263.18" y2="-409.78" gradientTransform="translate(-2776.54 4494.56) scale(10.79)" gradientUnits="userSpaceOnUse">
      <stop offset="0" stop-color="#ed2024"/>
      <stop offset=".2" stop-color="#ed2128"/>
      <stop offset=".4" stop-color="#ed2535"/>
      <stop offset=".62" stop-color="#ed2b4a"/>
      <stop offset=".83" stop-color="#ee3368"/>
      <stop offset="1" stop-color="#ee3b84"/>
    </linearGradient>
    <clipPath id="clippath-6">
      <path class="cls-6" d="M58.86,79c0,1.98-1.57,3.32-3.83,3.32s-4.01-1.11-5.03-1.11c-.89-.05-1.66.63-1.71,1.53,0,.06,0,.12,0,.18,0,.74.37,1.34,1.34,1.8,1.71.77,3.56,1.18,5.44,1.2,2.44,0,4.47-.74,5.9-2.03.49-.44.76-1.08.73-1.74,0-1.62-1.62-4.15-5.07-6.55,1.57,1.11,2.22,2.03,2.22,3.37v.02Z"/>
    </clipPath>
    <linearGradient id="linear-gradient-7" x1="238.02" y1="-419.55" x2="239.31" y2="-419.55" gradientTransform="translate(2399.92 -4043.38) rotate(-180) scale(9.83)" xlink:href="#linear-gradient-3"/>
    <clipPath id="clippath-7">
      <path class="cls-6" d="M51.29,62.21c-.41.4-.65.95-.64,1.52,0,1.52,1.43,3.78,4.75,6.09-1.46-1.06-2.12-2.03-2.12-3.18,0-1.46,1.2-2.4,2.93-2.4,2.17,0,3.18,1.01,4.47,1.01.89.05,1.66-.63,1.71-1.53,0-.06,0-.12,0-.18,0-.74-.37-1.34-1.34-1.8-1.56-.71-3.27-1.06-4.98-1.01-1.7-.05-3.37.47-4.75,1.46h-.02Z"/>
    </clipPath>
    <linearGradient id="linear-gradient-8" x1="264.21" y1="-409.77" x2="265.51" y2="-409.77" gradientTransform="translate(-2346.16 3781.9) scale(9.07)" xlink:href="#linear-gradient"/>
    <clipPath id="clippath-8">
      <path class="cls-6" d="M47.14,69.49l-1.05,3.51c-1.9,6.18-4.88,9.15-9.56,9.15-5.12,0-8.35-3.55-8.35-8.81,0,7.24,3.32,12.87,13.84,11.3,3.37-1.75,5.76-5.3,7.43-10.73l.98-3.18c-.87-1.14-1.33-2.54-1.29-3.97-.01-1.44.51-2.83,1.46-3.9-1.39,1.46-2.54,3.64-3.46,6.69v-.05Z"/>
    </clipPath>
    <linearGradient id="linear-gradient-9" x1="252.78" y1="-403.33" x2="254.08" y2="-403.33" gradientTransform="translate(-3168.28 5180.65) scale(12.66)" xlink:href="#linear-gradient-3"/>
  </defs>
  <polygon class="cls-5" points="71.46 67.37 73.9 67.37 73.9 63.01 75.63 63.01 75.63 61.26 69.73 61.26 69.73 63.01 71.46 63.01 71.46 67.37"/>
  <polygon class="cls-5" points="77.43 67.37 78.67 63.71 79.91 67.37 82.3 67.37 79.96 61.26 77.38 61.26 75.04 67.37 77.43 67.37"/>
  <polygon class="cls-5" points="83.44 67.37 85.88 67.37 85.88 63.01 87.61 63.01 87.61 61.26 81.71 61.26 81.71 63.01 83.44 63.01 83.44 67.37"/>
  <polygon class="cls-5" points="89.41 67.37 90.65 63.71 91.9 67.37 94.28 67.37 91.95 61.26 89.37 61.26 87.03 67.37 89.41 67.37"/>
  <path class="cls-5" d="M112.83,71.74c.32.73.68,1.44,1.09,2.12l1.6,2.69h1.16v-6.1h-1.03v2.13c0,.93,0,1.72.1,2.53h0c-.3-.71-.65-1.39-1.04-2.05l-1.59-2.62h-1.27v6.11h1.03v-2.21c0-1.01,0-1.81-.06-2.6h.03Z"/>
  <path class="cls-5" d="M107.28,74.81h1.95l.56,1.73h1.2l-2-6.09h-1.42l-1.95,6.11h1.16l.51-1.75ZM107.94,72.46c.11-.37.2-.79.29-1.15h0c.09.36.2.77.31,1.15l.49,1.51h-1.58l.49-1.51Z"/>
  <path class="cls-5" d="M89.09,75.71c-.51,0-1.02-.14-1.46-.39l-.25.92c.51.26,1.08.4,1.65.39,1.58,0,2.32-.85,2.32-1.83,0-.88-.49-1.41-1.57-1.82-.81-.31-1.17-.53-1.17-1,0-.36.3-.74,1.01-.74.42,0,.84.1,1.22.29l.27-.9c-.46-.21-.96-.32-1.46-.3-1.33,0-2.16.76-2.16,1.76,0,.88.64,1.42,1.65,1.78.77.28,1.08.56,1.08,1.01s-.4.83-1.11.83"/>
  <path class="cls-5" d="M73.05,71.25c.41,0,.81.08,1.19.24l.24-.89c-.46-.2-.96-.29-1.46-.27-1.87,0-3.27,1.21-3.27,3.23,0,1.86,1.18,3.08,3.12,3.08.54.02,1.08-.08,1.59-.28l-.19-.88c-.39.15-.8.23-1.22.22-1.34,0-2.13-.85-2.13-2.2,0-1.46.9-2.24,2.14-2.24"/>
  <polygon class="cls-5" points="104.25 76.54 104.25 71.36 106.01 71.36 106.01 70.42 101.38 70.42 101.38 71.36 103.13 71.36 103.13 76.54 104.25 76.54"/>
  <path class="cls-5" d="M126.56,70.45l-.74,1.57c-.21.44-.38.82-.53,1.21h0c-.17-.41-.33-.76-.53-1.21l-.75-1.57h-1.28l1.95,3.57v2.54h1.12v-2.6l2.01-3.51h-1.26Z"/>
  <path class="cls-5" d="M77.72,70.32c-1.73,0-2.93,1.33-2.93,3.2s1.09,3.11,2.82,3.11h0c1.67,0,2.93-1.17,2.93-3.22,0-1.75-1.05-3.09-2.83-3.09M77.66,75.74h0c-1.07,0-1.69-1.03-1.69-2.24s.59-2.28,1.7-2.28,1.69,1.09,1.69,2.24c0,1.28-.61,2.28-1.69,2.28"/>
  <path class="cls-5" d="M120.95,71.25c.41,0,.81.08,1.19.24l.24-.89c-.46-.2-.96-.29-1.46-.27-1.87,0-3.27,1.21-3.27,3.23,0,1.86,1.18,3.08,3.12,3.08.54.02,1.08-.08,1.59-.28l-.19-.88c-.39.15-.8.23-1.22.22-1.34,0-2.13-.85-2.13-2.2,0-1.46.9-2.24,2.14-2.24"/>
  <polygon class="cls-5" points="99.5 70.42 98.38 70.42 98.38 76.54 102.01 76.54 102.01 75.6 99.5 75.6 99.5 70.42"/>
  <path class="cls-5" d="M97.11,73.92v-3.47h-1.12v3.56c0,1.2-.49,1.75-1.29,1.75s-1.25-.56-1.25-1.75v-3.56h-1.12v3.5c0,1.92.92,2.71,2.33,2.71s2.44-.84,2.44-2.72"/>
  <path class="cls-5" d="M86.36,70.45h-1.03v2.13c0,.94,0,1.72.1,2.53h0c-.3-.71-.65-1.39-1.04-2.05l-1.6-2.62h-1.27v6.11h1.03v-2.21c0-1.01,0-1.81-.06-2.61h.03c.32.72.69,1.43,1.1,2.11l1.6,2.69h1.16v-6.09Z"/>
  <rect class="cls-5" x="90.02" y="79.59" width="1.12" height="6.11"/>
  <path class="cls-5" d="M82.34,82.83v-.02c.66-.22,1.1-.83,1.1-1.52.02-.46-.17-.91-.52-1.22-.55-.36-1.21-.53-1.87-.49-.56,0-1.12.04-1.68.13v5.98h1.1v-2.49h.56c.63,0,.92.27,1.09,1.06.09.49.23.97.4,1.43h1.14c-.2-.55-.36-1.12-.49-1.69-.07-.51-.38-.95-.84-1.18M81.12,82.39h-.65v-1.92c.23-.04.46-.06.69-.05.72,0,1.18.31,1.18.98s-.46.98-1.21.98"/>
  <path class="cls-5" d="M87.28,82.39c-.23.74-.46,1.49-.62,2.21h0c-.16-.74-.37-1.46-.6-2.22l-.83-2.78h-1.22l1.98,6.11h1.28l2.11-6.11h-1.19l-.91,2.79Z"/>
  <polygon class="cls-5" points="98.86 82.99 101.16 82.99 101.16 82.08 98.86 82.08 98.86 80.51 101.3 80.51 101.3 79.59 97.74 79.59 97.74 85.7 101.43 85.7 101.43 84.78 98.86 84.78 98.86 82.99"/>
  <path class="cls-5" d="M95.41,80.41c.41,0,.81.08,1.19.24l.24-.89c-.46-.2-.96-.29-1.46-.27-1.87,0-3.27,1.21-3.27,3.23,0,1.86,1.18,3.08,3.12,3.08.54.02,1.08-.08,1.59-.28l-.19-.88c-.39.15-.8.23-1.22.22-1.34,0-2.13-.85-2.13-2.2,0-1.46.9-2.24,2.14-2.24"/>
  <path class="cls-5" d="M72.13,82.16c-.81-.31-1.17-.53-1.17-1,0-.36.3-.74,1.01-.74.42,0,.84.1,1.22.29l.27-.9c-.46-.21-.96-.32-1.46-.3-1.33,0-2.16.76-2.16,1.76,0,.88.64,1.42,1.65,1.78.77.28,1.08.56,1.08,1.01s-.4.83-1.11.83c-.51,0-1.02-.14-1.46-.39l-.25.92c.51.26,1.08.4,1.65.39,1.58,0,2.32-.85,2.32-1.84,0-.88-.49-1.41-1.57-1.82"/>
  <polygon class="cls-5" points="75.82 82.99 78.12 82.99 78.12 82.08 75.82 82.08 75.82 80.51 78.26 80.51 78.26 79.59 74.7 79.59 74.7 85.7 78.39 85.7 78.39 84.78 75.82 84.78 75.82 82.99"/>
  <path class="cls-5" d="M104.54,82.16c-.81-.31-1.17-.53-1.17-1,0-.36.3-.74,1.01-.74.42,0,.84.1,1.22.29l.27-.9c-.46-.21-.96-.32-1.46-.3-1.33,0-2.16.76-2.16,1.76,0,.88.64,1.42,1.65,1.78.77.28,1.08.56,1.08,1.01s-.4.83-1.11.83c-.51,0-1.02-.14-1.46-.39l-.25.92c.51.26,1.08.4,1.65.39,1.58,0,2.32-.85,2.32-1.84,0-.88-.49-1.41-1.57-1.82"/>
  <g class="cls-20">
    <rect class="cls-19" x="12.18" y="54" width="4.43" height="11.44"/>
  </g>
  <g class="cls-9">
    <rect class="cls-4" x="4.86" y="65.97" width="26.53" height="15.23" transform="translate(-57.24 81.47) rotate(-82.13)"/>
  </g>
  <g class="cls-18">
    <rect class="cls-8" x="15.55" y="76.22" width="12.74" height="11.35" transform="translate(-23.74 10.46) rotate(-17.6)"/>
  </g>
  <g class="cls-14">
    <rect class="cls-7" x="20.65" y="58.48" width="26.34" height="29.99" transform="translate(-18.76 12.01) rotate(-15.83)"/>
  </g>
  <g class="cls-3">
    <rect class="cls-10" x="23.75" y="60.73" width="20.16" height="12.68"/>
  </g>
  <g class="cls-11">
    <rect class="cls-17" x="49.12" y="62.21" width="13.93" height="21.67"/>
  </g>
  <g class="cls-1">
    <rect class="cls-15" x="47.21" y="74.07" width="15.6" height="13.38" transform="translate(-18.84 16.77) rotate(-14.83)"/>
  </g>
  <g class="cls-2">
    <rect class="cls-13" x="50.64" y="60.73" width="11.72" height="9.09"/>
  </g>
  <g class="cls-12">
    <rect class="cls-16" x="23.57" y="58.84" width="31.65" height="31.33" transform="translate(-44.72 69.2) rotate(-58.53)"/>
  </g>
</svg>